HIERARCHY
ROOT Hips
{
	OFFSET 0.000000 0.000000 0.000000
	CHANNELS 6 Xposition Yposition Zposition Yrotation Xrotation Zrotation 
	JOINT LeftHip
	{
		OFFSET 0.087450 0.000284 -0.000032
		CHANNELS 3 Yrotation Xrotation Zrotation
		JOINT LeftKnee
		{
			OFFSET 0.000000 -0.456155 0.000080
			CHANNELS 3 Yrotation Xrotation Zrotation
			JOINT LeftAnkle
			{
				OFFSET 0.000000 -0.392056 0.000378
				CHANNELS 3 Yrotation Xrotation Zrotation
				JOINT LeftToe
				{
					OFFSET 0.000000 -0.079886 0.174677
					CHANNELS 3 Yrotation Xrotation Zrotation
					End Site
					{
						OFFSET 0.000000 0.000000 0.000000
					}
				}
			}
		}
	}
	JOINT RightHip
	{
		OFFSET -0.087450 0.000305 -0.000034
		CHANNELS 3 Yrotation Xrotation Zrotation
		JOINT RightKnee
		{
			OFFSET 0.000000 -0.456155 0.000080
			CHANNELS 3 Yrotation Xrotation Zrotation
			JOINT RightAnkle
			{
				OFFSET 0.000000 -0.392056 0.000378
				CHANNELS 3 Yrotation Xrotation Zrotation
				JOINT RightToe
				{
					OFFSET 0.000000 -0.079886 0.174677
					CHANNELS 3 Yrotation Xrotation Zrotation
					End Site
					{
						OFFSET 0.000000 0.000000 0.000000
					}
				}
			}
		}
	}
	JOINT Chest
	{
		OFFSET 0.000000 0.105774 -0.011753
		CHANNELS 3 Yrotation Xrotation Zrotation
		JOINT Chest3
		{
			OFFSET 0.000000 0.191987 -0.009445
			CHANNELS 3 Yrotation Xrotation Zrotation
			JOINT Chest4
			{
				OFFSET 0.000000 0.091765 -0.000120
				CHANNELS 3 Yrotation Xrotation Zrotation
				JOINT Neck
				{
					OFFSET 0.000000 0.125437 0.000000
					CHANNELS 3 Yrotation Xrotation Zrotation
					JOINT Head
					{
						OFFSET 0.000000 0.087991 0.000056
						CHANNELS 3 Yrotation Xrotation Zrotation
						End Site
						{
							OFFSET 0.000000 0.000000 0.000000
						}
					}
				}
				JOINT LeftCollar
				{
					OFFSET 0.025606 0.070386 0.000000
					CHANNELS 3 Yrotation Xrotation Zrotation
					JOINT LeftShoulder
					{
						OFFSET 0.123264 0.000000 0.000000
						CHANNELS 3 Yrotation Xrotation Zrotation
						JOINT LeftElbow
						{
							OFFSET 0.282857 0.000000 0.000000
							CHANNELS 3 Yrotation Xrotation Zrotation
							JOINT LeftWrist
							{
								OFFSET 0.211242 0.000000 0.000104
								CHANNELS 3 Yrotation Xrotation Zrotation
								End Site
								{
									OFFSET 0.000000 0.000000 0.000000
								}
							}
						}
					}
				}
				JOINT RightCollar
				{
					OFFSET -0.025606 0.070386 0.000000
					CHANNELS 3 Yrotation Xrotation Zrotation
					JOINT RightShoulder
					{
						OFFSET -0.123264 0.000000 0.000000
						CHANNELS 3 Yrotation Xrotation Zrotation
						JOINT RightElbow
						{
							OFFSET -0.282857 0.000000 0.000000
							CHANNELS 3 Yrotation Xrotation Zrotation
							JOINT RightWrist
							{
								OFFSET -0.211242 0.000000 0.000104
								CHANNELS 3 Yrotation Xrotation Zrotation
								End Site
								{
									OFFSET 0.000000 0.000000 0.000000
								}
							}
						}
					}
				}
			}
		}
	}
}
MOTION
Frames: 10
Frame Time: 0.016667
0.000000 0.000000 0.000000 175.478223 357.738858 356.997117 4.232651 6.971788 3.655941 359.576756 1.995560 0.381317 7.926364 355.175242 358.933851 0.219850 358.165097 358.923366 350.130310 4.036376 359.719110 359.651594 7.000581 0.123122 345.535947 355.300353 4.619234 0.322249 0.342855 358.615521 0.361263 0.813322 0.277209 359.599702 354.611959 0.222427 358.674201 6.107984 359.766936 352.679348 8.757211 1.118891 345.087645 339.499512 5.565534 359.256736 359.432673 351.368301 2.026790 348.534164 289.580569 297.086084 332.718738 335.160770 11.439382 2.368781 21.751175 3.003228 351.097216 358.728390 48.420755 321.390756 20.859865 32.778364 337.732946 350.985288 351.506167 2.362068 347.082350 
0.000000 0.000000 0.000000 175.451969 357.717472 356.989468 4.241915 7.002190 3.671864 359.578572 1.998537 0.382745 7.943020 355.175579 358.929726 0.218360 358.146659 358.919350 350.140670 4.058876 359.731151 359.654397 7.006890 0.122735 345.543370 355.291381 4.612165 0.322762 0.334079 358.614497 0.361576 0.807896 0.276734 359.599111 354.607487 0.222004 358.677864 6.107225 359.764997 352.672048 8.764295 1.120440 345.058915 339.512734 5.578608 359.257630 359.430454 351.370021 2.046350 348.540376 289.584061 297.065045 332.693473 335.173035 11.419072 2.362964 21.755753 3.007991 351.089108 358.742623 48.335943 321.393808 20.940417 32.807642 337.618402 351.013459 351.563986 2.218022 347.212269 
0.000000 0.000000 0.000000 175.429998 357.694916 356.981247 4.249901 7.032726 3.687762 359.579506 2.001312 0.384130 7.956694 355.176884 358.925306 0.221757 358.132759 358.915155 350.150347 4.082340 359.743264 359.655682 7.012358 0.122480 345.547454 355.286138 4.602307 0.327669 0.326661 358.615190 0.361427 0.803017 0.278444 359.598063 354.603449 0.223550 358.677359 6.106917 359.762960 352.665154 8.772681 1.119394 345.042569 339.516766 5.586699 359.259891 359.428674 351.371176 2.066745 348.549375 289.581182 297.048893 332.666265 335.183698 11.404965 2.357112 21.771406 3.015347 351.081661 358.753531 48.267422 321.400359 21.011433 32.797212 337.593823 351.034649 351.636782 2.035741 347.437856 
0.000000 0.000000 0.000000 175.410730 357.671223 356.972783 4.256949 7.063099 3.703430 359.579982 2.004841 0.385449 7.968585 355.179273 358.921198 0.226786 358.122705 358.910291 350.159835 4.106041 359.755283 359.655694 7.018301 0.122324 345.549158 355.283828 4.589918 0.334021 0.320719 358.617521 0.360987 0.798348 0.281286 359.596778 354.599573 0.226114 358.675407 6.106763 359.761060 352.657888 8.781988 1.117071 345.035832 339.516687 5.589309 359.263207 359.426257 351.371791 2.087725 348.560345 289.575518 297.036263 332.638768 335.190850 11.402271 2.347428 21.793387 3.021272 351.082528 358.764064 48.214011 321.403108 21.069715 32.763234 337.608099 351.048353 351.670253 1.983131 347.587877 
0.000000 0.000000 0.000000 175.392050 357.648937 356.964673 4.263386 7.090478 3.718147 359.580858 2.008811 0.386656 7.980217 355.183722 358.918368 0.229978 358.117776 358.904981 350.170472 4.126613 359.767643 359.654356 7.024267 0.122476 345.548766 355.286048 4.572552 0.339370 0.317316 358.622516 0.360619 0.793198 0.283481 359.595676 354.595297 0.228115 358.673845 6.106329 359.759179 352.649874 8.790668 1.116882 345.033922 339.519406 5.586951 359.266971 359.423531 351.372893 2.108916 348.571179 289.573347 297.024560 332.617885 335.195950 11.407250 2.333314 21.809983 3.024596 351.086873 358.775417 48.162262 321.408982 21.119112 32.725339 337.638713 351.063801 351.642196 2.056680 347.598507 
0.000000 0.000000 0.000000 175.372498 357.629249 356.956690 4.269459 7.113474 3.732006 359.582653 2.013482 0.387761 7.992679 355.190508 358.917353 0.230257 358.117455 358.898718 350.183897 4.141889 359.781433 359.651025 7.031140 0.123139 345.545380 355.294492 4.546112 0.343586 0.314408 358.633047 0.360451 0.787601 0.284666 359.594840 354.590650 0.229206 358.673245 6.105476 359.757385 352.642021 8.797529 1.120809 345.031485 339.527838 5.581637 359.270706 359.420852 351.374685 2.129715 348.581090 289.577306 297.010574 332.607066 335.200635 11.411665 2.324088 21.813194 3.028136 351.084260 358.786807 48.099645 321.430238 21.164543 32.690492 337.680136 351.092691 351.577840 2.165306 347.526122 
0.000000 0.000000 0.000000 175.353501 357.610963 356.949080 4.274952 7.133494 3.744949 359.584807 2.018578 0.388674 8.004912 355.199325 358.917644 0.230632 358.119048 358.892203 350.198462 4.153858 359.795549 359.646377 7.038447 0.124107 345.539886 355.307253 4.514762 0.347353 0.311242 358.646646 0.360407 0.781500 0.285182 359.594168 354.585535 0.229694 358.671417 6.104373 359.755400 352.633805 8.803642 1.127024 345.026680 339.541472 5.578746 359.274427 359.418270 351.376826 2.151546 348.592046 289.585033 296.994755 332.602965 335.205515 11.407971 2.331329 21.803477 3.032649 351.075138 358.798341 48.027974 321.461224 21.211090 32.655815 337.733138 351.128740 351.521824 2.231763 347.474013 
0.000000 0.000000 0.000000 175.337513 357.592973 356.943144 4.279484 7.151960 3.756032 359.586520 2.022994 0.389205 8.015224 355.210208 358.918622 0.233440 358.121302 358.887357 350.210507 4.163727 359.807054 359.642201 7.047410 0.124947 345.535428 355.318680 4.488954 0.350048 0.310269 358.656626 0.360536 0.774084 0.284436 359.593794 354.579252 0.228999 358.665971 6.103139 359.752276 352.622674 8.810617 1.133290 345.019000 339.560639 5.584707 359.278309 359.416116 351.379694 2.176618 348.605486 289.595220 296.980422 332.602297 335.210910 11.394917 2.352902 21.785345 3.035662 351.067753 358.811732 47.951569 321.485002 21.264794 32.627223 337.781958 351.157347 351.495804 2.238987 347.494061 
0.000000 0.000000 0.000000 175.326851 357.576010 356.939268 4.282252 7.167928 3.764803 359.587511 2.026556 0.389286 8.022195 355.223745 358.920587 0.239283 358.123546 358.884720 350.217887 4.170939 359.814699 359.639276 7.058591 0.125601 345.533234 355.327037 4.473807 0.352294 0.312029 358.659538 0.360983 0.764393 0.281561 359.593922 354.570938 0.226342 358.655051 6.101499 359.747074 352.606388 8.818658 1.138800 345.006543 339.586667 5.602488 359.282214 359.415313 351.384044 2.204906 348.621125 289.607930 296.968888 332.603257 335.215024 11.378162 2.375383 21.767099 3.033347 351.068822 358.828359 47.870020 321.490365 21.331738 32.611452 337.827566 351.168610 351.490384 2.198278 347.557897 
0.000000 0.000000 0.000000 175.319186 357.559349 356.937067 4.284048 7.182336 3.771711 359.588088 2.029426 0.388973 8.027248 355.239338 358.923284 0.244189 358.124094 358.883684 350.222742 4.176192 359.819746 359.636887 7.071119 0.126130 345.532060 355.334221 4.464143 0.354261 0.313375 358.660198 0.361612 0.753445 0.277448 359.594351 354.561498 0.222538 358.641776 6.099668 359.740636 352.586732 8.827626 1.144476 344.980986 339.614907 5.629638 359.286323 359.415418 351.389358 2.235571 348.637916 289.622782 296.960157 332.607159 335.218952 11.362875 2.388107 21.747816 3.028510 351.072357 358.846099 47.783031 321.487885 21.405649 32.602663 337.868991 351.172592 351.492462 2.141056 347.599876 
